<?xml version="1.0" standalone="no"?>
<!DOCTYPE svg PUBLIC "-//W3C//DTD SVG 20010904//EN"
 "http://www.w3.org/TR/2001/REC-SVG-20010904/DTD/svg10.dtd">
<svg version="1.0" xmlns="http://www.w3.org/2000/svg"
 width="700.000000pt" height="700.000000pt" viewBox="0 0 700.000000 700.000000"
 preserveAspectRatio="xMidYMid meet">
<metadata>
Created by potrace 1.11, written by Peter Selinger 2001-2013
</metadata>
<g transform="translate(0.000000,700.000000) scale(0.100000,-0.100000)"
fill="#000000" stroke="none">
<path d="M3398 6935 c-2 -2 -24 -6 -50 -9 -66 -9 -205 -50 -274 -82 -194 -87
-380 -264 -483 -459 -42 -78 -97 -244 -107 -320 -21 -162 -5 -338 44 -485 50
-154 131 -281 256 -405 139 -137 282 -217 486 -271 69 -19 326 -26 405 -12
317 57 589 256 740 541 43 82 91 217 101 286 3 20 7 47 9 61 6 33 7 239 1 248
-2 4 -7 31 -11 61 -16 126 -95 309 -186 430 -164 219 -372 348 -659 407 -27 5
-267 13 -272 9z"/>
<path d="M1327 4862 c-20 -3 -26 -7 -19 -15 5 -7 89 -151 186 -322 97 -170
181 -317 186 -325 5 -8 22 -37 38 -65 15 -27 143 -250 283 -495 141 -245 268
-467 282 -493 15 -26 33 -58 41 -70 28 -44 101 -172 101 -177 0 -3 8 -16 17
-30 16 -26 386 -671 441 -770 17 -30 42 -73 56 -95 l26 -40 1 -935 c1 -514 2
-943 3 -953 1 -16 32 -17 534 -16 l533 1 0 947 0 947 94 165 c51 90 99 173
105 184 5 11 18 31 26 45 9 14 30 50 46 80 17 30 46 82 65 115 20 33 47 80 60
105 14 25 166 290 337 588 171 299 311 545 311 547 0 2 17 32 38 66 44 73 101
173 116 206 6 13 14 23 19 23 4 0 7 4 7 9 0 8 100 188 192 346 103 177 238
416 238 422 0 4 -259 8 -576 8 l-577 -1 -54 -94 c-31 -52 -88 -151 -128 -220
-39 -69 -161 -278 -270 -465 -109 -187 -206 -355 -217 -373 -10 -18 -60 -104
-110 -190 -50 -86 -116 -200 -146 -252 -30 -52 -68 -117 -84 -143 l-31 -48
-27 48 c-14 26 -115 201 -224 388 -110 187 -207 354 -216 370 -126 220 -561
968 -566 974 -4 4 -1098 7 -1137 3z"/>
</g>
</svg>
